<svg id="Layer_1" enable-background="new 0 0 512 512" height="512" viewBox="0 0 512 512" width="512" xmlns="http://www.w3.org/2000/svg"><path d="m384 34.297h-256l-128 221.703 128 221.703h256l128-221.703z" fill="#8bc4ff"/><path d="m177.323 392.373c-51.609 89.462-49.173 85.333-49.323 85.333l-128-221.706h98.539c81.885 141.839 78.684 136.373 78.784 136.373z" fill="#74f7f9"/><path d="m177.323 119.627c-.1 0 3.068-5.406-78.784 136.373h-98.539l128-221.707c.147 0-2.284-4.126 49.323 85.334z" fill="#8dffff"/><path d="m383.904 34.293-49.227 85.334h-157.354l-49.227-85.334z" fill="#8dffff"/><path d="m512 256h-98.539l-78.731-136.373c-.1 0-2.401 4.07 49.173-85.333.15-.001-5.999-10.559 128.097 221.706z" fill="#74f7f9"/><path d="m512 256c-134.114 232.297-127.947 221.707-128.096 221.707-51.534-89.334-49.273-85.333-49.173-85.333l78.73-136.374z" fill="#68eaea"/><path d="m383.904 477.707h-255.808l49.227-85.334h157.354z" fill="#68eaea"/><path d="m413.461 256-78.73 136.373h-157.462l-78.73-136.373 78.73-136.373h157.462z" fill="#74f7f9"/><path d="m376 256-60 103.929h-120l-60-103.929 60-103.929h120z" fill="#8dffff"/><g fill="#8bc4ff"><path d="m384 477.867-.096-.16"/><path d="m128.096 34.293-.096-.16"/><path d="m128.096 477.707-.096.16"/><path d="m384 34.133-.096.16"/></g></svg>